<?xml version="1.0" encoding="UTF-8"?>
<!DOCTYPE svg PUBLIC "-//W3C//DTD SVG 1.1//EN" "http://www.w3.org/Graphics/SVG/1.1/DTD/svg11.dtd">
<!-- Creator: CorelDRAW -->
<svg xmlns="http://www.w3.org/2000/svg" xml:space="preserve" width="1.70666in" height="1.70666in" version="1.1" style="shape-rendering:geometricPrecision; text-rendering:geometricPrecision; image-rendering:optimizeQuality; fill-rule:evenodd; clip-rule:evenodd"
viewBox="0 0 1707 1707"
 xmlns:xlink="http://www.w3.org/1999/xlink">
 <defs>
  <style type="text/css">
   <![CDATA[
    .fil0 {fill:black}
   ]]>
  </style>
 </defs>
 <g id="Layer_x0020_1">
  <metadata id="CorelCorpID_0Corel-Layer"/>
  <g id="_569526192">
   <g>
    <g>
     <path class="fil0" d="M747 1369c-5,0 -12,-3 -17,-7l-309 -309c-25,-25 -39,-59 -39,-93 0,-35 14,-68 39,-93 51,-50 134,-50 184,0l117 116 0 -514c0,-72 58,-132 132,-132 72,0 132,59 132,132l0 361 201 0c129,0 234,105 234,234l0 280c0,14 -12,25 -25,25 -14,0 -25,-11 -25,-25l0 -280c0,-102 -84,-185 -185,-185l-225 0c-14,0 -25,-11 -25,-25l0 -385c0,-45 -38,-83 -83,-83 -46,0 -84,38 -84,83l0 572c0,10 -5,19 -15,23 -10,4 -19,1 -26,-6l-156 -157c-32,-32 -85,-32 -117,0 -15,16 -23,36 -23,59 0,22 8,43 25,58l307 310c9,9 9,25 0,34 -4,4 -11,7 -17,7z"/>
    </g>
    <g>
     <path class="fil0" d="M1394 1580l-647 0c-14,0 -25,-11 -25,-25l0 -211c0,-14 11,-25 25,-25l647 0c14,0 25,11 25,25l0 211c0,14 -11,25 -25,25zm-623 -48l598 0 0 -163 -598 0 0 163z"/>
    </g>
    <g>
     <path class="fil0" d="M961 568c-8,0 -17,-4 -21,-13 -7,-11 -3,-26 8,-33 56,-33 93,-72 93,-161 0,-85 -83,-186 -187,-186 -103,0 -186,83 -186,186 0,57 26,111 72,147 7,6 14,10 21,14 11,7 15,22 8,33 -7,12 -22,16 -33,9 -8,-6 -18,-11 -26,-18 -57,-45 -89,-113 -89,-185 0,-129 105,-235 234,-235 134,0 236,127 236,235 0,118 -59,169 -116,203 -6,3 -10,4 -14,4z"/>
    </g>
    <g>
     <path class="fil0" d="M236 597c-130,0 -236,-105 -236,-235 0,-129 106,-234 236,-234 129,0 235,105 235,234 0,130 -106,235 -235,235zm0 -422c-104,0 -187,83 -187,187 0,105 84,187 187,187 103,0 186,-84 186,-187 0,-102 -83,-187 -186,-187z"/>
    </g>
    <g>
     <path class="fil0" d="M1472 597c-129,0 -235,-105 -235,-235 0,-129 106,-234 235,-234 129,0 235,105 235,234 0,130 -104,235 -235,235zm0 -422c-103,0 -186,83 -186,186 0,103 83,186 186,186 103,0 186,-83 186,-186 0,-103 -82,-186 -186,-186z"/>
    </g>
    <g>
     <path class="fil0" d="M200 455c0,0 0,0 0,0 -7,0 -13,-2 -17,-6l-66 -67c-10,-10 -10,-25 0,-35 9,-10 25,-10 34,0l49 50 119 -121c10,-9 25,-9 35,0 10,10 10,25 0,35l-137 138c-5,4 -10,6 -17,6z"/>
    </g>
    <g>
     <g>
      <path class="fil0" d="M1575 487c-6,0 -13,-2 -17,-7l-204 -202c-10,-10 -10,-25 0,-35 10,-10 25,-10 35,0l204 203c10,9 10,25 0,34 -6,5 -13,7 -18,7z"/>
     </g>
     <g>
      <path class="fil0" d="M1371 487c-6,0 -13,-2 -17,-7 -10,-9 -10,-25 0,-34l204 -203c10,-10 25,-10 35,0 10,10 10,25 0,35l-206 202c-4,5 -11,7 -16,7z"/>
     </g>
    </g>
   </g>
  </g>
 </g>
</svg>
