<svg version="1.1" id="Layer_1" xmlns="http://www.w3.org/2000/svg" xmlns:xlink="http://www.w3.org/1999/xlink" x="0px" y="0px"
	 width="100%" viewBox="0 0 512 512" enable-background="new 0 0 512 512" xml:space="preserve">
<path fill="#000000" opacity="1.000000" stroke="none" 
	d="
M0.999995,320.000000 
	C1.000000,213.706604 1.000000,107.413216 1.000000,1.059913 
	C171.562607,1.059913 342.125244,1.059913 513.000000,1.059913 
	C513.000000,107.022438 513.000000,213.045181 512.659302,319.853455 
	C511.829681,318.643524 511.345642,316.646820 510.851135,314.652740 
	C506.463867,296.962036 500.797638,279.796234 491.059296,264.178131 
	C480.569275,247.354568 467.408478,233.037582 451.745941,220.922241 
	C438.775818,210.889542 424.255920,203.811279 409.195312,197.572296 
	C409.895538,192.665283 410.290802,188.106186 411.060577,183.611221 
	C413.465637,169.568024 412.079254,155.548645 409.694763,141.789505 
	C406.646637,124.200935 400.594116,107.515190 391.546967,91.921486 
	C381.846466,75.201538 369.770844,60.486042 354.793091,48.449364 
	C338.106506,35.039356 319.423065,24.964418 298.451294,19.887384 
	C289.763062,17.784067 280.822083,16.725040 271.563721,15.128805 
	C262.273468,15.042811 253.412186,14.852248 244.558243,15.029127 
	C224.313354,15.433568 205.387802,21.446993 187.544785,30.349424 
	C169.609558,39.297855 153.905365,51.365597 140.567703,66.687576 
	C127.196754,82.047791 117.179359,99.140862 110.449326,118.187920 
	C103.487953,137.889694 101.058456,158.348862 102.103561,179.158554 
	C102.419670,185.452835 103.952393,191.686020 104.587036,198.091370 
	C95.516731,202.309128 86.524872,205.907181 78.109520,210.550140 
	C57.205368,222.083511 40.328072,238.179047 27.037771,257.962524 
	C14.639092,276.418732 5.935008,296.400574 2.898273,318.623688 
	C2.825139,319.158905 1.657261,319.544556 0.999995,320.000000 
z"/>
<path fill="#FFD23B" opacity="1.000000" stroke="none" 
	d="
M0.999995,320.468628 
	C1.657261,319.544556 2.825139,319.158905 2.898273,318.623688 
	C5.935008,296.400574 14.639092,276.418732 27.037771,257.962524 
	C40.328072,238.179047 57.205368,222.083511 78.109520,210.550140 
	C86.524872,205.907181 95.516731,202.309128 104.590912,198.142639 
	C104.935600,198.049744 104.978531,198.143219 105.043732,198.515656 
	C110.962616,225.533524 122.070786,249.640320 140.175690,270.217133 
	C158.439453,290.974518 180.300003,306.517090 206.970581,315.156799 
	C207.083481,315.320892 207.189133,315.703583 207.003052,316.078583 
	C202.772324,335.238647 203.082825,354.067841 206.497925,372.876038 
	C211.841248,402.303467 225.235413,427.747131 244.979263,450.302734 
	C234.536987,466.607697 220.489441,478.738647 203.588531,486.881653 
	C192.675247,492.139832 180.575195,494.934875 168.581146,498.903809 
	C165.075500,499.312042 161.974899,500.063629 158.919861,499.909729 
	C150.237625,499.472473 141.565659,498.758698 132.904922,497.983215 
	C118.903595,496.729523 105.592484,492.523743 92.907944,486.860779 
	C64.325310,474.100311 41.421780,454.429749 24.527319,427.985535 
	C13.526641,410.766602 6.362710,392.032104 2.923898,371.870117 
	C2.802450,371.158081 1.664289,370.619446 0.999996,370.000000 
	C1.000000,353.645782 1.000000,337.291534 0.999995,320.468628 
z"/>
<path fill="#000000" opacity="1.000000" stroke="none" 
	d="
M0.999996,370.468658 
	C1.664289,370.619446 2.802450,371.158081 2.923898,371.870117 
	C6.362710,392.032104 13.526641,410.766602 24.527319,427.985535 
	C41.421780,454.429749 64.325310,474.100311 92.907944,486.860779 
	C105.592484,492.523743 118.903595,496.729523 132.904922,497.983215 
	C141.565659,498.758698 150.237625,499.472473 158.919861,499.909729 
	C161.974899,500.063629 165.075500,499.312042 169.019531,498.980896 
	C172.634567,498.660278 175.385223,498.331604 178.136154,498.005188 
	C192.715683,496.275238 206.551941,491.980835 219.927368,486.024231 
	C233.370895,480.037262 245.328842,471.706787 257.304779,462.903351 
	C266.350586,468.970703 274.656525,475.651550 283.821350,480.804932 
	C300.224060,490.028015 317.876160,495.905914 336.731110,498.129486 
	C348.513428,499.518982 360.204803,501.281738 372.442566,498.904968 
	C374.934723,498.665222 377.012146,498.354492 379.052643,498.041229 
	C379.015717,498.038727 379.006348,498.112152 379.446167,498.063782 
	C384.388947,497.340698 388.966919,496.983643 393.383240,495.941650 
	C433.135895,486.562256 464.339050,464.675415 487.408691,431.107574 
	C499.725983,413.185181 507.385468,393.354614 511.077423,371.945831 
	C511.204559,371.208618 512.336426,370.644684 513.000000,370.000000 
	C513.000000,417.640533 513.000000,465.281036 513.000000,512.960815 
	C342.453125,512.960815 171.906219,512.960815 1.000000,512.960815 
	C1.000000,465.646393 1.000000,418.291840 0.999996,370.468658 
z"/>
<path fill="#FF3187" opacity="1.000000" stroke="none" 
	d="
M513.000000,369.531342 
	C512.336426,370.644684 511.204559,371.208618 511.077423,371.945831 
	C507.385468,393.354614 499.725983,413.185181 487.408691,431.107574 
	C464.339050,464.675415 433.135895,486.562256 393.383240,495.941650 
	C388.966919,496.983643 384.388947,497.340698 379.703094,497.800232 
	C380.437317,497.198608 381.323151,496.693268 382.275970,496.442810 
	C418.828369,486.833466 443.739105,463.093933 461.086426,430.666382 
	C479.993561,395.322968 485.618073,357.543427 480.084015,317.987488 
	C474.771973,280.018677 459.731110,246.736359 431.497314,220.314255 
	C424.580780,213.841537 415.827423,209.331589 407.948303,203.548645 
	C408.334015,201.482758 408.689972,199.787506 409.064453,198.058182 
	C409.082947,198.024124 409.061707,197.949570 409.061707,197.949570 
	C424.255920,203.811279 438.775818,210.889542 451.745941,220.922241 
	C467.408478,233.037582 480.569275,247.354568 491.059296,264.178131 
	C500.797638,279.796234 506.463867,296.962036 510.851135,314.652740 
	C511.345642,316.646820 511.829681,318.643524 512.659302,320.319519 
	C513.000000,336.354218 513.000000,352.708466 513.000000,369.531342 
z"/>
<path fill="#09A1E5" opacity="1.000000" stroke="none" 
	d="
M104.931725,197.998474 
	C103.952393,191.686020 102.419670,185.452835 102.103561,179.158554 
	C101.058456,158.348862 103.487953,137.889694 110.449326,118.187920 
	C117.179359,99.140862 127.196754,82.047791 140.567703,66.687576 
	C153.905365,51.365597 169.609558,39.297855 187.544785,30.349424 
	C205.387802,21.446993 224.313354,15.433568 244.558243,15.029127 
	C253.412186,14.852248 262.273468,15.042811 271.873962,15.328691 
	C293.102234,19.266396 311.343475,27.912642 326.898895,41.593769 
	C350.595398,62.435101 365.586456,88.810127 373.980194,119.038521 
	C380.597015,142.867813 381.529419,167.192490 379.516357,191.741180 
	C378.791077,191.685913 378.378998,191.600052 377.721069,191.369705 
	C376.912292,191.179794 376.349335,191.134369 375.352203,191.106384 
	C359.925415,189.394516 345.015503,190.182617 330.231842,192.976532 
	C302.858948,198.149658 278.466156,209.580124 257.382935,228.139343 
	C256.975708,228.181091 256.740509,228.221680 256.254913,227.960632 
	C241.555069,214.674805 224.914352,205.349869 206.599106,199.136719 
	C199.290833,196.657532 191.574875,195.380188 183.753662,193.551086 
	C183.076218,193.517776 182.689621,193.489120 182.191330,193.246948 
	C181.386673,192.963562 180.693726,192.893692 179.608063,192.753235 
	C164.569901,189.619980 149.815216,189.411850 135.117935,191.832031 
	C124.999420,193.498215 115.020073,196.009583 104.978531,198.143219 
	C104.978531,198.143219 104.935600,198.049744 104.931725,197.998474 
z"/>
<path fill="#077CCC" opacity="1.000000" stroke="none" 
	d="
M379.829559,191.710602 
	C381.529419,167.192490 380.597015,142.867813 373.980194,119.038521 
	C365.586456,88.810127 350.595398,62.435101 326.898895,41.593769 
	C311.343475,27.912642 293.102234,19.266396 272.306274,15.390980 
	C280.822083,16.725040 289.763062,17.784067 298.451294,19.887384 
	C319.423065,24.964418 338.106506,35.039356 354.793091,48.449364 
	C369.770844,60.486042 381.846466,75.201538 391.546967,91.921486 
	C400.594116,107.515190 406.646637,124.200935 409.694763,141.789505 
	C412.079254,155.548645 413.465637,169.568024 411.060577,183.611221 
	C410.290802,188.106186 409.895538,192.665283 409.195312,197.572296 
	C409.061707,197.949570 409.082947,198.024124 408.652313,198.093307 
	C398.757629,196.011871 389.293610,193.861237 379.829559,191.710602 
z"/>
<path fill="#89C247" opacity="1.000000" stroke="none" 
	d="
M182.303024,193.460464 
	C182.689621,193.489120 183.076218,193.517776 183.938110,193.877853 
	C186.554703,195.070786 188.684357,195.962601 190.839050,196.789154 
	C213.308487,205.408524 231.350861,219.708862 245.162384,239.514130 
	C225.530945,261.445160 212.462570,286.326355 206.857681,314.992737 
	C180.300003,306.517090 158.439453,290.974518 140.175690,270.217133 
	C122.070786,249.640320 110.962616,225.533524 105.043732,198.515656 
	C115.020073,196.009583 124.999420,193.498215 135.117935,191.832031 
	C149.815216,189.411850 164.569901,189.619980 179.829849,192.990784 
	C181.063904,193.352768 181.683456,193.406616 182.303024,193.460464 
z"/>
<path fill="#FF9259" opacity="1.000000" stroke="none" 
	d="
M245.052628,449.956757 
	C225.235413,427.747131 211.841248,402.303467 206.497925,372.876038 
	C203.082825,354.067841 202.772324,335.238647 207.386978,316.126587 
	C230.729614,323.088013 253.980713,325.346466 277.790924,322.911346 
	C278.237427,327.019104 279.046356,330.666809 278.917969,334.281281 
	C278.464355,347.052368 278.437164,359.903687 276.885254,372.557434 
	C273.397247,400.997009 262.947113,426.870422 245.730927,450.011353 
	C245.504623,449.995819 245.052628,449.956757 245.052628,449.956757 
z"/>
<path fill="#2E3F53" opacity="1.000000" stroke="none" 
	d="
M277.723480,322.436066 
	C253.980713,325.346466 230.729614,323.088013 207.573059,315.751587 
	C207.189133,315.703583 207.083481,315.320892 206.970581,315.156799 
	C212.462570,286.326355 225.530945,261.445160 245.340378,239.496643 
	C245.690887,239.188278 246.049759,239.177261 246.201294,239.471619 
	C257.098114,254.862869 265.691223,271.100616 270.699280,288.957214 
	C273.729156,299.760468 275.578125,310.894928 277.892517,322.016663 
	C277.827393,322.152771 277.723480,322.436066 277.723480,322.436066 
z"/>
<path fill="#FFB24A" opacity="1.000000" stroke="none" 
	d="
M244.979263,450.302734 
	C245.052628,449.956757 245.504623,449.995819 245.891388,450.303925 
	C249.836655,454.077271 253.395157,457.542480 256.957214,461.311157 
	C256.957825,462.019287 256.954865,462.423920 256.951935,462.828583 
	C245.328842,471.706787 233.370895,480.037262 219.927368,486.024231 
	C206.551941,491.980835 192.715683,496.275238 178.136154,498.005188 
	C175.385223,498.331604 172.634567,498.660278 169.445404,498.910828 
	C180.575195,494.934875 192.675247,492.139832 203.588531,486.881653 
	C220.489441,478.738647 234.536987,466.607697 244.979263,450.302734 
z"/>
<path fill="#FF5178" opacity="1.000000" stroke="none" 
	d="
M257.304779,462.903351 
	C256.954865,462.423920 256.957825,462.019287 257.252899,461.150787 
	C270.490906,449.238281 281.472900,436.161926 289.934998,421.069855 
	C304.444702,395.191925 311.239288,367.376648 309.883270,337.740845 
	C309.546814,330.388336 307.800873,323.100281 306.768066,315.583252 
	C306.833313,315.383850 307.067169,315.035461 307.442688,315.015472 
	C343.959717,302.315979 371.366943,279.097626 390.883270,246.295364 
	C398.768677,233.041946 403.610565,218.595169 407.918579,203.919250 
	C415.827423,209.331589 424.580780,213.841537 431.497314,220.314255 
	C459.731110,246.736359 474.771973,280.018677 480.084015,317.987488 
	C485.618073,357.543427 479.993561,395.322968 461.086426,430.666382 
	C443.739105,463.093933 418.828369,486.833466 382.275970,496.442810 
	C381.323151,496.693268 380.437317,497.198608 379.263306,497.848602 
	C379.006348,498.112152 379.015717,498.038727 378.637878,498.022552 
	C376.182678,498.282227 374.105255,498.558075 372.027863,498.833954 
	C360.204803,501.281738 348.513428,499.518982 336.731110,498.129486 
	C317.876160,495.905914 300.224060,490.028015 283.821350,480.804932 
	C274.656525,475.651550 266.350586,468.970703 257.304779,462.903351 
z"/>
<path fill="#FF3187" opacity="1.000000" stroke="none" 
	d="
M372.442566,498.904968 
	C374.105255,498.558075 376.182678,498.282227 378.674805,498.025055 
	C377.012146,498.354492 374.934723,498.665222 372.442566,498.904968 
z"/>
<path fill="#962B7C" opacity="1.000000" stroke="none" 
	d="
M407.948303,203.548630 
	C403.610565,218.595169 398.768677,233.041946 390.883270,246.295364 
	C371.366943,279.097626 343.959717,302.315979 307.397339,314.618103 
	C302.287811,291.103516 293.009979,269.969879 278.442688,251.400528 
	C272.028320,243.223999 264.552368,235.880264 257.558441,228.158417 
	C278.466156,209.580124 302.858948,198.149658 330.231842,192.976532 
	C345.015503,190.182617 359.925415,189.394516 375.594666,191.268463 
	C376.836548,191.446762 377.401733,191.480484 377.966919,191.514191 
	C378.378998,191.600052 378.791077,191.685913 379.516357,191.741180 
	C389.293610,193.861237 398.757629,196.011871 408.633789,198.127365 
	C408.689972,199.787506 408.334015,201.482758 407.948303,203.548630 
z"/>
<path fill="#2E2570" opacity="1.000000" stroke="none" 
	d="
M257.382935,228.139343 
	C264.552368,235.880264 272.028320,243.223999 278.442688,251.400528 
	C293.009979,269.969879 302.287811,291.103516 307.021790,314.638092 
	C307.067169,315.035461 306.833313,315.383850 306.390228,315.620728 
	C296.617310,317.865265 287.287506,319.872925 277.957672,321.880585 
	C275.578125,310.894928 273.729156,299.760468 270.699280,288.957214 
	C265.691223,271.100616 257.098114,254.862869 246.363251,239.172333 
	C249.749710,235.133133 253.125763,231.687607 256.501801,228.242065 
	C256.740509,228.221680 256.975708,228.181091 257.382935,228.139343 
z"/>
<path fill="#49B296" opacity="1.000000" stroke="none" 
	d="
M256.254913,227.960632 
	C253.125763,231.687607 249.749710,235.133133 246.211716,238.877960 
	C246.049759,239.177261 245.690887,239.188278 245.512894,239.205780 
	C231.350861,219.708862 213.308487,205.408524 190.839050,196.789154 
	C188.684357,195.962601 186.554703,195.070786 184.228958,193.882507 
	C191.574875,195.380188 199.290833,196.657532 206.599106,199.136719 
	C224.914352,205.349869 241.555069,214.674805 256.254913,227.960632 
z"/>
<path fill="#49B296" opacity="1.000000" stroke="none" 
	d="
M182.191330,193.246948 
	C181.683456,193.406616 181.063904,193.352768 180.222549,193.061371 
	C180.693726,192.893692 181.386673,192.963562 182.191330,193.246948 
z"/>
<path fill="#077CCC" opacity="1.000000" stroke="none" 
	d="
M377.721069,191.369705 
	C377.401733,191.480484 376.836548,191.446762 376.028870,191.250992 
	C376.349335,191.134369 376.912292,191.179794 377.721069,191.369705 
z"/>
<path fill="#FF7169" opacity="1.000000" stroke="none" 
	d="
M277.892517,322.016663 
	C287.287506,319.872925 296.617310,317.865265 306.324951,315.820129 
	C307.800873,323.100281 309.546814,330.388336 309.883270,337.740845 
	C311.239288,367.376648 304.444702,395.191925 289.934998,421.069855 
	C281.472900,436.161926 270.490906,449.238281 257.249329,460.847351 
	C253.395157,457.542480 249.836655,454.077271 246.117706,450.319458 
	C262.947113,426.870422 273.397247,400.997009 276.885254,372.557434 
	C278.437164,359.903687 278.464355,347.052368 278.917969,334.281281 
	C279.046356,330.666809 278.237427,327.019104 277.790924,322.911346 
	C277.723480,322.436066 277.827393,322.152771 277.892517,322.016663 
z"/>
</svg>