<?xml version="1.0" encoding="UTF-8" standalone="no"?> <svg id="Layer_1" data-name="Layer 1" xmlns="http://www.w3.org/2000/svg" viewBox="0 0 128 128"><defs><style>.cls-1{fill:#2b77c0;}.cls-2{fill:#3b4551;}</style></defs><title>a</title><path class="cls-1" d="M41.18431,90.66775,64,90.44518l22.81562.22257a1.29132,1.29132,0,0,0,1.33473-1.35949l-.5437-12.92817a3.6545,3.6545,0,0,0-2.62026-2.74381L72.55264,70.49693,64,76.924l-8.55271-6.427L43.01354,73.63629a3.6545,3.6545,0,0,0-2.62026,2.74381l-.5437,12.92817A1.29132,1.29132,0,0,0,41.18431,90.66775Z"/><path class="cls-1" d="M62.69906,67.31755c.42076.02688,2.41986.03485,2.94808-.03334,5.89054-.76065,9.15664-11.09909,9.15664-16.57478a10.80381,10.80381,0,1,0-21.60762,0C53.19615,56.29128,56.59036,66.92693,62.69906,67.31755Z"/><circle class="cls-1" cx="43.25238" cy="103.60834" r="3.13521"/><circle class="cls-1" cx="57.08417" cy="103.60834" r="3.13521"/><circle class="cls-1" cx="70.91597" cy="103.60834" r="3.13521"/><circle class="cls-1" cx="84.74777" cy="103.60834" r="3.13521"/><path class="cls-2" d="M105.47349,1.13353H22.52659a6.49376,6.49376,0,0,0-6.482,6.482V120.38447a6.49381,6.49381,0,0,0,6.482,6.482h82.9469a6.4938,6.4938,0,0,0,6.48193-6.482V7.61553A6.49375,6.49375,0,0,0,105.47349,1.13353ZM83.25169,11.44113H94.09116a3.11035,3.11035,0,1,1,0,6.22071H83.25169a3.11035,3.11035,0,1,1,0-6.22071Zm-49.34285,0H44.74831a3.11035,3.11035,0,1,1,0,6.22071H33.90884a3.11035,3.11035,0,1,1,0-6.22071Zm69.33758,106.71635H24.75358V27.96967h78.49285Z"/></svg>