<svg version="1.1" id="Layer_1" xmlns="http://www.w3.org/2000/svg" xmlns:xlink="http://www.w3.org/1999/xlink" x="0px" y="0px"
	 width="100%" viewBox="0 0 608 448" enable-background="new 0 0 608 448" xml:space="preserve">
<path fill="#000000" opacity="1.000000" stroke="none" 
	d="
M310.685364,262.999939 
	C310.682556,233.666809 310.753357,204.833298 310.594727,176.001053 
	C310.572113,171.889679 311.871613,169.303131 315.236176,166.912277 
	C333.597565,153.864594 352.180664,141.248581 373.044067,132.384262 
	C385.541840,127.074287 398.488495,123.618752 411.955505,121.931221 
	C415.902832,121.436592 417.380402,122.703163 417.348236,126.717224 
	C417.221466,142.549377 417.298492,158.383179 417.298737,174.216370 
	C417.299316,213.216064 417.301453,252.215759 417.297546,291.215454 
	C417.296844,298.131165 417.272491,297.926697 410.428864,298.335236 
	C375.974976,300.391998 344.798523,311.800690 316.563965,331.507538 
	C315.104675,332.526123 313.897888,334.082153 310.685608,334.023254 
	C310.685608,310.517883 310.685608,287.008911 310.685364,262.999939 
z"/>
<path fill="#000000" opacity="1.000000" stroke="none" 
	d="
M226.910400,301.273285 
	C218.485245,299.612152 210.421539,298.384766 202.256165,298.341339 
	C198.277512,298.320160 196.638336,297.030548 196.645905,292.825226 
	C196.745468,237.520584 196.753952,182.215607 196.652267,126.910980 
	C196.643311,122.042320 198.716858,121.592155 202.848724,122.086197 
	C233.382568,125.737099 259.352051,139.985596 284.231873,156.807648 
	C289.473297,160.351532 294.522766,164.179703 299.770996,167.713013 
	C302.195404,169.345230 303.364624,171.214676 303.360199,174.266296 
	C303.285217,226.072815 303.310089,277.879486 303.291718,329.686096 
	C303.291260,330.985168 303.050049,332.284149 302.764954,335.156158 
	C279.439301,318.395508 254.770889,306.626129 226.910400,301.273285 
z"/>
<path fill="#000000" opacity="1.000000" stroke="none" 
	d="
M363.999939,339.319275 
	C350.739655,339.319427 337.979370,339.319427 324.790680,339.319427 
	C325.584991,336.395569 327.564240,336.054443 329.108002,335.399139 
	C346.795227,327.891052 365.370819,324.673859 384.470947,323.614594 
	C403.796997,322.542816 423.096497,323.055389 442.412079,323.611603 
	C450.443237,323.842896 451.013397,323.147675 451.019012,315.241974 
	C451.053406,266.748596 451.070282,218.255234 451.111664,169.761871 
	C451.117584,162.834610 451.167877,162.831207 458.099335,162.805527 
	C470.337769,162.760178 470.335083,162.760162 470.335266,174.911346 
	C470.336182,227.404251 470.341553,279.897156 470.337555,332.390045 
	C470.337036,339.285919 470.316345,339.312683 463.486328,339.314758 
	C430.490875,339.324768 397.495392,339.319183 363.999939,339.319275 
z"/>
<path fill="#000000" opacity="1.000000" stroke="none" 
	d="
M162.878036,281.000000 
	C162.885147,293.161743 162.855209,304.823669 162.915939,316.485138 
	C162.946869,322.422150 164.058289,323.661713 169.914703,323.602783 
	C180.570023,323.495575 191.222229,322.978271 201.876968,322.935364 
	C223.202728,322.849457 244.486099,323.517029 265.307098,328.840363 
	C273.486572,330.931610 281.524292,333.480743 288.939972,337.530060 
	C288.341583,339.926453 286.734039,339.279999 285.578125,339.280884 
	C239.930771,339.316895 194.283188,339.249542 148.636307,339.402344 
	C143.501297,339.419525 143.612106,336.597748 143.614609,333.037872 
	C143.648270,285.224731 143.635727,237.411575 143.636978,189.598404 
	C143.637161,182.268173 143.791046,174.934158 143.596359,167.609283 
	C143.496338,163.846115 145.031769,162.782883 148.610947,162.724945 
	C162.404770,162.501678 162.368576,162.404129 162.421249,176.059814 
	C162.555573,210.873276 162.723831,245.686615 162.878036,281.000000 
z"/>
<path fill="#000000" opacity="1.000000" stroke="none" 
	d="
M444.088379,273.000000 
	C444.085052,285.827515 443.955139,298.157013 444.145813,310.481506 
	C444.212524,314.793884 442.747955,316.322723 438.361206,316.278259 
	C421.706177,316.109467 405.048004,316.281647 388.390991,316.273438 
	C378.878357,316.268738 369.485168,317.468658 360.108917,318.885284 
	C359.129303,319.033325 358.157684,319.429596 357.230255,318.536255 
	C357.805206,316.268036 360.029053,316.423187 361.573273,315.861725 
	C379.375427,309.389221 397.708771,305.685913 416.704407,305.407288 
	C423.631744,305.305664 424.659668,304.114288 424.660858,297.043793 
	C424.669434,245.901215 424.660522,194.758621 424.660400,143.616043 
	C424.660400,135.852081 424.668213,135.852066 432.190887,135.665878 
	C432.357422,135.661758 432.524078,135.662369 432.690582,135.657196 
	C444.035095,135.304214 444.037506,135.304184 444.042053,147.059143 
	C444.058289,188.872757 444.072754,230.686386 444.088379,273.000000 
z"/>
<path fill="#000000" opacity="1.000000" stroke="none" 
	d="
M195.890289,305.248840 
	C214.782364,305.614594 232.690857,308.992310 250.121613,315.009705 
	C251.852432,315.607269 253.562195,316.267151 255.271561,316.924561 
	C255.729065,317.100464 256.148956,317.374207 256.179565,317.390228 
	C256.262756,319.003387 255.425781,319.076935 254.863312,318.982635 
	C230.390060,314.881134 205.719498,316.122162 181.091660,316.218018 
	C179.258743,316.225159 177.408051,316.066040 175.596405,316.264801 
	C171.180557,316.749298 169.812943,314.787964 169.820953,310.502686 
	C169.926468,254.015015 169.899307,197.527115 169.933273,141.039276 
	C169.936798,135.192032 170.580582,134.699188 176.328293,135.326965 
	C177.650528,135.471390 178.978561,135.607468 180.306808,135.644852 
	C189.307739,135.898209 189.319412,135.889313 189.321121,144.684280 
	C189.331039,195.673340 189.371338,246.662460 189.279053,297.651337 
	C189.270813,302.206512 190.316620,305.195923 195.890289,305.248840 
z"/>
</svg>