<svg version="1.1" id="Layer_1" xmlns="http://www.w3.org/2000/svg" xmlns:xlink="http://www.w3.org/1999/xlink" x="0px" y="0px"
	 width="100%" viewBox="0 0 512 512" enable-background="new 0 0 512 512" xml:space="preserve">
<path fill="#48B02C" opacity="1.000000" stroke="none" 
	d="
M0.999995,455.000000 
	C1.000000,323.309998 1.000000,191.620026 1.380328,59.599743 
	C2.107317,58.933842 2.665089,58.653973 2.770540,58.254658 
	C10.423076,29.276031 28.747915,10.901180 57.583614,2.879399 
	C58.183590,2.712492 58.533455,1.646536 59.000000,1.000000 
	C190.689987,1.000000 322.379974,1.000000 454.400269,1.380320 
	C455.068542,2.108647 455.350616,2.668458 455.752411,2.774469 
	C484.726715,10.419395 503.081177,28.754805 511.118164,57.567257 
	C511.287048,58.172699 512.352722,58.527992 513.000000,58.999996 
	C513.000000,190.689987 513.000000,322.379974 512.619690,454.400085 
	C511.892578,455.065857 511.334656,455.345734 511.229065,455.745209 
	C503.571747,484.718079 485.259918,503.105255 456.417999,511.120789 
	C455.817627,511.287659 455.467072,512.353516 455.000000,513.000000 
	C323.309998,513.000000 191.620026,513.000000 59.599709,512.619629 
	C58.933487,511.892578 58.653412,511.334991 58.253727,511.229156 
	C29.292276,503.560669 10.874212,485.280609 2.879656,456.418213 
	C2.713399,455.817993 1.646646,455.467194 0.999995,455.000000 
M330.658722,193.158463 
	C294.403107,229.416977 258.147522,265.675476 221.434830,302.391113 
	C220.272858,300.938019 219.528885,299.803314 218.590027,298.863312 
	C192.573807,272.815735 166.550720,246.774979 140.497360,220.764557 
	C132.564423,212.844711 125.463989,212.832443 117.592842,220.620316 
	C113.093063,225.072510 108.629410,229.561325 104.162979,234.047058 
	C95.654175,242.592621 95.698792,249.364212 104.327293,257.997437 
	C139.184296,292.873474 174.045380,327.745453 208.904709,362.619202 
	C218.436172,372.154510 225.214798,372.167938 234.757111,362.623962 
	C271.033997,326.340759 307.301392,290.048096 343.575409,253.762024 
	C365.834442,231.495575 388.116852,209.252426 410.351471,186.961563 
	C418.113495,179.179886 418.060394,171.822815 410.310699,163.985107 
	C405.742859,159.365448 401.150787,154.769211 396.529022,150.203506 
	C388.701355,142.470734 381.380249,142.474655 373.571014,150.260239 
	C359.414490,164.373840 345.294159,178.523712 330.658722,193.158463 
z"/>
<path fill="#000000" opacity="1.000000" stroke="none" 
	d="
M58.531342,1.000000 
	C58.533455,1.646536 58.183590,2.712492 57.583614,2.879399 
	C28.747915,10.901180 10.423076,29.276031 2.770540,58.254658 
	C2.665089,58.653973 2.107317,58.933842 1.380328,59.134727 
	C1.000000,39.739868 1.000000,20.479736 1.000000,1.000000 
	C20.020330,1.000000 39.041508,1.000000 58.531342,1.000000 
z"/>
<path fill="#000000" opacity="1.000000" stroke="none" 
	d="
M513.000000,58.531338 
	C512.352722,58.527992 511.287048,58.172699 511.118164,57.567257 
	C503.081177,28.754805 484.726715,10.419395 455.752411,2.774469 
	C455.350616,2.668458 455.068542,2.108647 454.865295,1.380320 
	C474.260132,1.000000 493.520264,1.000000 513.000000,1.000000 
	C513.000000,20.020330 513.000000,39.041508 513.000000,58.531338 
z"/>
<path fill="#000000" opacity="1.000000" stroke="none" 
	d="
M0.999995,455.468658 
	C1.646646,455.467194 2.713399,455.817993 2.879656,456.418213 
	C10.874212,485.280609 29.292276,503.560669 58.253727,511.229156 
	C58.653412,511.334991 58.933487,511.892578 59.134697,512.619629 
	C39.739868,513.000000 20.479736,513.000000 1.000000,513.000000 
	C1.000000,493.979675 1.000000,474.958496 0.999995,455.468658 
z"/>
<path fill="#000000" opacity="1.000000" stroke="none" 
	d="
M455.468658,513.000000 
	C455.467072,512.353516 455.817627,511.287659 456.417999,511.120789 
	C485.259918,503.105255 503.571747,484.718079 511.229065,455.745209 
	C511.334656,455.345734 511.892578,455.065857 512.619690,454.865082 
	C513.000000,474.260132 513.000000,493.520264 513.000000,513.000000 
	C493.979675,513.000000 474.958496,513.000000 455.468658,513.000000 
z"/>
<path fill="#FEFFFE" opacity="1.000000" stroke="none" 
	d="
M330.908722,192.908447 
	C345.294159,178.523712 359.414490,164.373840 373.571014,150.260239 
	C381.380249,142.474655 388.701355,142.470734 396.529022,150.203506 
	C401.150787,154.769211 405.742859,159.365448 410.310699,163.985107 
	C418.060394,171.822815 418.113495,179.179886 410.351471,186.961563 
	C388.116852,209.252426 365.834442,231.495575 343.575409,253.762024 
	C307.301392,290.048096 271.033997,326.340759 234.757111,362.623962 
	C225.214798,372.167938 218.436172,372.154510 208.904709,362.619202 
	C174.045380,327.745453 139.184296,292.873474 104.327293,257.997437 
	C95.698792,249.364212 95.654175,242.592621 104.162979,234.047058 
	C108.629410,229.561325 113.093063,225.072510 117.592842,220.620316 
	C125.463989,212.832443 132.564423,212.844711 140.497360,220.764557 
	C166.550720,246.774979 192.573807,272.815735 218.590027,298.863312 
	C219.528885,299.803314 220.272858,300.938019 221.434830,302.391113 
	C258.147522,265.675476 294.403107,229.416977 330.908722,192.908447 
z"/>
</svg>